 http://www.imdb.com/title/tt1700443/


Director John Bradshaw's sci-fi fantasy film Pegasus Vs. Chimera follows a father and son who battle a an evil king and discover mythical creatures while hunting.



Director:
 John Bradshaw 

Writers:
 Jeremy Levy, Angela Mancuso, 1 more credit » 

Stars:
 Sebastian Roché, Nazneen Contractor, Rae Dawn Chong

Genres:
  Fantasy |  Sci-Fi 

Country:
 Canada 

Language:
 English 



Format                                   : AVI
Format/Info                              : Audio Video Interleave
Format profile                           : OpenDML
Format settings                          : rec
File size                                : 698 MiB
Duration                                 : 1h 26mn
Overall bit rate mode                    : Variable
Overall bit rate                         : 1 130 Kbps
Writing application                      : AVI-Mux GUI 1.17.8.3, Feb 16 201019:42:50

Video
ID                                       : 0
Format                                   : MPEG-4 Visual
Format profile                           : Advanced Simple@L5
Format settings, BVOP                    : 2
Format settings, QPel                    : No
Format settings, GMC                     : No warppoints
Format settings, Matrix                  : Default (H.263)
Muxing mode                              : Packed bitstream
Codec ID                                 : XVID
Codec ID/Hint                            : XviD
Duration                                 : 1h 26mn
Bit rate                                 : 926 Kbps
Width                                    : 624 pixels
Height                                   : 352 pixels
Display aspect ratio                     : 16:9
Frame rate                               : 23.976 fps
Color space                              : YUV
Chroma subsampling                       : 4:2:0
Bit depth                                : 8 bits
Scan type                                : Progressive
Compression mode                         : Lossy
Bits/(Pixel*Frame)                       : 0.176
Stream size                              : 572 MiB (82%)
Writing library                          : XviD 64

Audio
ID                                       : 1
Format                                   : MPEG Audio
Format version                           : Version 1
Format profile                           : Layer 3
Mode                                     : Joint stereo
Mode extension                           : MS Stereo
Codec ID                                 : 55
Codec ID/Hint                            : MP3
Duration                                 : 1h 26mn
Bit rate mode                            : Variable
Bit rate                                 : 192 Kbps
Channel(s)                               : 2 channels
Sampling rate                            : 48.0 KHz
Compression mode                         : Lossy
Stream size                              : 121 MiB (17%)
Alignment                                : Aligned on interleaves
Interleave, duration                     : 24 ms (0.58 video frame)
Interleave, preload duration             : 330 ms
Writing library                          : LAME3.90.
Encoding settings                        : -m j -V 4 -q 2 -lowpass 19.6 --abr 192-m j -V 4 -q 2 -lowpass 19.6 --abr 192-m j -V 4 -q 2 -lowpass 19.6 --abr 192


 
http://bayimg.com/jAmffaAef 
http://bayimg.com/jAmFeAAEF 
http://bayimg.com/jamFAaAef 
http://bayimg.com/JAmfbaAEf 
http://bayimg.com/JaMfDAaEf